<svg viewBox="0 0 640 400" data-background-color="#ffffff" preserveAspectRatio="xMidYMid meet" height="400" width="640" xmlns="http://www.w3.org/2000/svg" xmlns:xlink="http://www.w3.org/1999/xlink"><rect width="640" height="400" x="0" y="0" opacity="1" fill="#f5f6fa" data-fill-palette-color="background" id="background"></rect><g id="tight-bounds" transform="matrix(1,0,0,1,148.57422074112307,28.57422074112307)"><svg viewBox="0 0 342.85155851775386 342.85155851775386" height="342.85155851775386" width="342.85155851775386"><g><svg></svg></g><g><svg viewBox="0 0 342.85155851775386 342.85155851775386" height="342.85155851775386" width="342.85155851775386"><g><path d="M0 171.426c0-94.676 76.75-171.426 171.426-171.426 94.676 0 171.426 76.75 171.426 171.426 0 94.676-76.75 171.426-171.426 171.426-94.676 0-171.426-76.75-171.426-171.426zM171.426 340.081c93.146 0 168.655-75.509 168.655-168.655 0-93.146-75.509-168.655-168.655-168.655-93.146 0-168.655 75.509-168.655 168.655 0 93.146 75.509 168.655 168.655 168.655z" data-fill-palette-color="tertiary" fill="#7f8ff4" stroke="transparent"></path><ellipse rx="164.56874808852186" ry="164.56874808852186" cx="171.42577925887693" cy="171.42577925887693" fill="#7f8ff4" stroke="transparent" stroke-width="0" fill-opacity="1" data-fill-palette-color="tertiary"></ellipse></g><g transform="matrix(1,0,0,1,64.84655864529837,120.58868293773307)"><svg viewBox="0 0 213.1584412271571 101.67419264228774" height="101.67419264228774" width="213.1584412271571"><g><svg viewBox="0 0 213.1584412271571 101.67419264228774" height="101.67419264228774" width="213.1584412271571"><g><svg viewBox="0 0 213.1584412271571 101.67419264228774" height="101.67419264228774" width="213.1584412271571"><g transform="matrix(1,0,0,1,0,70.94833665037709)"><svg viewBox="0 0 213.1584412271571 30.72585599191065" height="30.72585599191065" width="213.1584412271571"><g><svg viewBox="0 0 213.1584412271571 30.72585599191065" height="30.72585599191065" width="213.1584412271571"><g><svg viewBox="0 0 213.1584412271571 30.72585599191065" height="30.72585599191065" width="213.1584412271571"><g transform="matrix(1,0,0,1,0,0)"><svg width="213.1584412271571" viewBox="3.25 -33.75 304.8699951171875 43.95000076293945" height="30.72585599191065" data-palette-color="#ffffff"><path d="M8.85-29Q8.85-27.55 8.75-25.15L8.75-25.15 8.7-21.9Q8.7-17.15 9.4-13.95L9.4-13.95Q10.4-9.45 12.4-7L12.4-7Q14.25-4.85 16.95-4.85L16.95-4.85Q19.05-4.85 20.7-6.13 22.35-7.4 23.25-9.3L23.25-9.3Q24.75-12.4 24.75-16.95L24.75-16.95Q24.75-19.7 24.4-23.45L24.4-23.45Q24.1-27.65 24.1-29.75L24.1-29.75Q24.1-30.85 25.4-31.18 26.7-31.5 28.1-31.5L28.1-31.5Q28.6-31.5 29.25-30.85 29.9-30.2 29.9-29.45L29.9-29.45Q29.9-27.95 29.75-26.6L29.75-26.6Q29.65-25.1 29.65-24.5L29.65-24.5Q29.65-22.6 29.85-19.2L29.85-19.2Q29.9-18.35 29.95-17.15 30-15.95 30-14.4L30-14.4Q30-11 28.38-7.63 26.75-4.25 23.85-2.08 20.95 0.1 17.3 0.1L17.3 0.1Q11.7 0.1 8.55-3.53 5.4-7.15 4.25-12.9L4.25-12.9Q3.6-16.2 3.43-19.8 3.25-23.4 3.25-29.45L3.25-29.45Q3.25-30.25 4.03-30.95 4.8-31.65 5.7-31.65L5.7-31.65Q8.85-31.65 8.85-29L8.85-29ZM43.2-2Q43.2-1.15 42.55-0.5 41.9 0.15 40.95 0.15L40.95 0.15Q39.45 0.15 38.75-0.43 38.05-1 38.05-2.55L38.05-2.55Q38.05-4.4 37.95-7.4L37.95-7.4Q37.85-9.9 37.85-11.6L37.85-11.6Q37.85-12.4 37.95-13.7L37.95-13.7Q38.05-14.9 38.05-15.5L38.05-15.5Q37.9-16.45 37.3-17.07 36.7-17.7 35.75-17.7L35.75-17.7Q35.3-17.7 35-18.13 34.7-18.55 34.7-19L34.7-19Q34.7-20.15 35.62-20.75 36.55-21.35 37.85-21.35L37.85-21.35Q40.55-21.35 41.6-18.15L41.6-18.15Q42.9-19.65 44.57-20.58 46.25-21.5 47.8-21.5L47.8-21.5Q49.65-21.5 51.17-20.5 52.7-19.5 52.7-17.8L52.7-17.8Q52.7-16.85 51.87-15.85 51.05-14.85 50.2-14.85L50.2-14.85Q49.75-14.85 49.42-15.08 49.1-15.3 48.65-15.75L48.65-15.75Q48.15-16.25 47.8-16.48 47.45-16.7 47-16.7L47-16.7Q46.2-16.7 45.5-16.45 44.8-16.2 44.55-15.85L44.55-15.85Q43.75-14.6 43.37-13.6 43-12.6 43-11.45L43-11.45Q43-10.6 42.95-10.1L42.95-10.1 42.9-7.25Q42.9-6.6 42.95-5.8 43-5 43.05-4.6L43.05-4.6Q43.2-3.25 43.2-2L43.2-2ZM61.25-7.75Q61.25-5.85 61.82-4.83 62.4-3.8 63.3-3.8L63.3-3.8Q63.8-3.8 64.25-3.88 64.7-3.95 65.15-3.95L65.15-3.95Q65.65-3.95 66.02-3.45 66.4-2.95 66.4-2.35L66.4-2.35Q66.4-1.15 65.27-0.48 64.15 0.2 62.25 0.2L62.25 0.2Q60.9 0.2 59.52-0.63 58.15-1.45 57.25-3.23 56.35-5 56.35-7.65L56.35-7.65Q56.35-13.35 56.55-17.3L56.55-17.3Q56.8-22 56.8-29.15L56.8-29.15Q56.8-31.4 57.05-32.3L57.05-32.3Q57.35-33 58.02-33.38 58.7-33.75 59.45-33.75L59.45-33.75Q60.2-33.75 60.77-33.5 61.35-33.25 61.55-32.7L61.55-32.7Q61.75-32.1 61.82-31.53 61.9-30.95 61.9-29.9L61.9-29.9Q61.9-27.85 61.75-25.95L61.75-25.95Q61.65-23.65 61.65-22.6L61.65-22.6Q61.25-13.8 61.25-7.75L61.25-7.75ZM83.79-11.25Q84.19-11 85.37-10.33 86.54-9.65 86.94-8.75 87.34-7.85 87.34-6.25L87.34-6.25Q87.34-4.45 86.29-3.08 85.24-1.7 83.59-0.95L83.59-0.95Q82.39-0.4 80.67-0.1 78.94 0.2 77.94 0.2L77.94 0.2Q76.94 0.2 75.37-0.1 73.79-0.4 73.19-0.65L73.19-0.65Q71.64-1.55 70.52-2.85 69.39-4.15 69.39-5.5L69.39-5.5Q69.39-6.5 70.04-7.08 70.69-7.65 71.74-7.65L71.74-7.65Q72.24-7.65 72.79-7.28 73.34-6.9 73.54-6.5L73.54-6.5Q74.09-5.2 75.39-4.55 76.69-3.9 78.04-3.9L78.04-3.9Q79.79-3.9 81.29-4.48 82.79-5.05 82.79-6.05L82.79-6.05Q82.79-6.5 82.57-6.78 82.34-7.05 81.94-7.35L81.94-7.35Q81.24-7.85 79.84-8.18 78.44-8.5 78.04-8.6L78.04-8.6Q75.99-9.05 74.04-9.95L74.04-9.95Q72.09-10.9 70.94-12.2 69.79-13.5 69.79-15.55L69.79-15.55Q69.79-16.9 70.79-18.38 71.79-19.85 73.04-20.45L73.04-20.45Q73.94-20.8 76.07-21.2 78.19-21.6 78.94-21.6L78.94-21.6Q80.09-21.6 81.44-21.38 82.79-21.15 83.49-20.65L83.49-20.65Q84.84-19.85 85.69-18.98 86.54-18.1 86.54-17L86.54-17Q86.54-16.45 86.29-15.83 86.04-15.2 85.69-15.05L85.69-15.05Q84.94-14.7 83.94-14.7L83.94-14.7Q83.49-14.7 83.22-14.95 82.94-15.2 82.49-15.75L82.49-15.75Q81.94-16.6 81.44-16.75L81.44-16.75Q80.84-16.9 79.69-17.13 78.54-17.35 78.14-17.35L78.14-17.35Q76.99-17.35 75.77-16.7 74.54-16.05 74.54-15.2L74.54-15.2Q74.54-14.75 74.92-14.5 75.29-14.25 75.72-14.05 76.14-13.85 76.29-13.8L76.29-13.8Q77.34-13.3 78.62-12.95 79.89-12.6 80.19-12.5L80.19-12.5Q82.89-11.85 83.79-11.25L83.79-11.25ZM109.89-1.8Q109.74-1.05 109.01-0.53 108.29 0 106.99 0L106.99 0Q105.89 0 105.26-0.6 104.64-1.2 104.59-1.85L104.59-1.85Q104.89-3.95 104.89-8.15L104.89-8.15Q104.89-10.65 104.59-15.85L104.59-15.85Q104.24-20.75 104.24-24.55L104.24-24.55Q104.24-26.6 104.44-28.75L104.44-28.75Q104.44-29.45 105.26-30.25 106.09-31.05 107.54-31.25L107.54-31.25Q112.29-31.75 119.19-31.75L119.19-31.75 120.79-31.75Q122.59-31.75 124.31-31.1 126.04-30.45 126.04-28.85L126.04-28.85Q126.04-27.8 125.54-27.2 125.04-26.6 123.69-26.6L123.69-26.6Q123.04-26.6 122.19-26.7 121.34-26.8 120.99-26.85L120.99-26.85Q119.09-27.15 118.04-27.15L118.04-27.15Q112.24-27.15 109.29-26.35L109.29-26.35Q109.29-24.7 109.39-21L109.39-21 109.44-17.8Q112.04-17.8 114.09-18.03 116.14-18.25 116.44-18.3L116.44-18.3Q119.04-18.6 119.89-18.6L119.89-18.6Q121.09-18.6 121.91-18.07 122.74-17.55 122.74-16.45L122.74-16.45Q122.74-13.95 119.24-13.95L119.24-13.95Q118.39-13.95 117.74-13.9 117.09-13.85 116.64-13.8L116.64-13.8Q114.84-13.6 113.79-13.6L113.79-13.6Q111.49-13.6 109.89-13.45L109.89-13.45Q109.89-11.6 110.04-9.55L110.04-9.55Q110.04-8.9 110.11-7.55 110.19-6.2 110.19-5.1L110.19-5.1Q110.19-4.15 110.14-3.35 110.09-2.55 109.89-1.8L109.89-1.8ZM148.74-16.05Q149.14-15.35 149.39-14.03 149.64-12.7 149.64-11.65L149.64-11.65Q149.64-9.7 148.79-6.1L148.79-6.1Q145.34 0.2 138.59 0.2L138.59 0.2Q136.09 0.2 133.49-1.45 130.89-3.1 129.89-5.25L129.89-5.25Q128.54-9.55 128.54-10.7L128.54-10.7Q128.54-12.7 129.41-14.95 130.29-17.2 131.64-18.85L131.64-18.85Q132.49-20 134.69-20.83 136.89-21.65 138.69-21.65L138.69-21.65Q142.19-21.65 144.64-20.33 147.09-19 148.74-16.05L148.74-16.05ZM144.39-8Q144.64-8.65 144.64-11.35L144.64-11.35Q144.64-12.8 144.11-14.2 143.59-15.6 142.59-16.6L142.59-16.6Q142.49-16.7 142.04-16.93 141.59-17.15 140.81-17.38 140.04-17.6 139.04-17.6L139.04-17.6Q136.24-17.6 134.94-15.35 133.64-13.1 133.64-10.25L133.64-10.25Q133.64-9.75 133.91-8.35 134.19-6.95 134.39-6.6L134.39-6.6Q134.54-6.25 135.16-5.63 135.79-5 136.71-4.53 137.64-4.05 138.64-4.05L138.64-4.05Q140.89-4.05 142.24-5.13 143.59-6.2 144.39-8L144.39-8ZM161.93-2Q161.93-1.15 161.28-0.5 160.63 0.15 159.68 0.15L159.68 0.15Q158.18 0.15 157.48-0.43 156.78-1 156.78-2.55L156.78-2.55Q156.78-4.4 156.68-7.4L156.68-7.4Q156.58-9.9 156.58-11.6L156.58-11.6Q156.58-12.4 156.68-13.7L156.68-13.7Q156.78-14.9 156.78-15.5L156.78-15.5Q156.63-16.45 156.03-17.07 155.43-17.7 154.48-17.7L154.48-17.7Q154.03-17.7 153.73-18.13 153.43-18.55 153.43-19L153.43-19Q153.43-20.15 154.36-20.75 155.28-21.35 156.58-21.35L156.58-21.35Q159.28-21.35 160.33-18.15L160.33-18.15Q161.63-19.65 163.31-20.58 164.98-21.5 166.53-21.5L166.53-21.5Q168.38-21.5 169.91-20.5 171.43-19.5 171.43-17.8L171.43-17.8Q171.43-16.85 170.61-15.85 169.78-14.85 168.93-14.85L168.93-14.85Q168.48-14.85 168.16-15.08 167.83-15.3 167.38-15.75L167.38-15.75Q166.88-16.25 166.53-16.48 166.18-16.7 165.73-16.7L165.73-16.7Q164.93-16.7 164.23-16.45 163.53-16.2 163.28-15.85L163.28-15.85Q162.48-14.6 162.11-13.6 161.73-12.6 161.73-11.45L161.73-11.45Q161.73-10.6 161.68-10.1L161.68-10.1 161.63-7.25Q161.63-6.6 161.68-5.8 161.73-5 161.78-4.6L161.78-4.6Q161.93-3.25 161.93-2L161.93-2ZM209.38-0.75Q208.73-1.6 208.28-2.63 207.83-3.65 207.33-5.1L207.33-5.1Q207.23-5.35 206.75-6.6 206.28-7.85 205.68-8.75L205.68-8.75Q202.53-8.3 200.53-8.3L200.53-8.3Q199.43-8.3 198.1-8.38 196.78-8.45 196.13-8.45L196.13-8.45Q193.63-8.65 192.13-8.65L192.13-8.65Q191.53-7.85 191.1-6.95 190.68-6.05 190.03-4.25L190.03-4.25Q189.13-1.65 188.48-0.55L188.48-0.55Q188.03 0.2 186.73 0.2L186.73 0.2Q185.63 0.2 184.7-0.28 183.78-0.75 183.78-1.6L183.78-1.6Q184.18-3.5 185.05-5.63 185.93-7.75 187.58-11.3L187.58-11.3 189.58-16.2Q191.23-20.4 192.6-23.4 193.98-26.4 196.23-30.5L196.23-30.5Q196.53-31.1 197.23-31.53 197.93-31.95 198.78-31.95L198.78-31.95Q199.73-31.95 200.15-31.83 200.58-31.7 200.83-31.43 201.08-31.15 201.58-30.3L201.58-30.3Q203.28-27.65 204.5-24.85 205.73-22.05 207.63-17.1L207.63-17.1 208.68-14.45Q210.08-10.85 211.1-8.43 212.13-6 213.38-4L213.38-4Q214.18-2.7 214.18-2.2L214.18-2.2Q214.18-1 213.45-0.38 212.73 0.25 211.58 0.25L211.58 0.25Q210.13 0.25 209.38-0.75L209.38-0.75ZM204.23-12.85Q203.43-14.55 201.93-18.75L201.93-18.75Q200.38-23.25 198.83-25.9L198.83-25.9Q197.88-23.5 196.03-19.7L196.03-19.7Q194.78-17.35 193.18-12.9L193.18-12.9Q196.38-12.5 200.08-12.5L200.08-12.5Q202.73-12.5 204.23-12.85L204.23-12.85ZM236.97-31.7Q243.77-31.7 247.75-29.83 251.72-27.95 253.77-25.65L253.77-25.65Q255.42-23.75 256.47-21.28 257.52-18.8 257.52-15.35L257.52-15.35Q257.52-12.8 256.37-10.03 255.22-7.25 253.37-5.55L253.37-5.55Q251.42-3.7 249.7-2.55 247.97-1.4 245.05-0.68 242.12 0.05 237.62 0.05L237.62 0.05Q234.22 0.05 231.47-0.73 228.72-1.5 228.72-3.35L228.72-3.35Q228.72-4.1 229.4-4.53 230.07-4.95 230.87-4.95L230.87-4.95Q231.32-4.95 231.47-4.9L231.47-4.9Q231.82-8.2 231.82-11.9L231.82-11.9Q231.82-16.05 231.62-18.78 231.42-21.5 231.07-24.2L231.07-24.2Q231.02-24.55 230.85-26.15 230.67-27.75 230.67-29.4L230.67-29.4Q230.67-30.45 231.72-31.18 232.77-31.9 233.87-31.9L233.87-31.9Q234.52-31.9 235.62-31.8L235.62-31.8Q236.52-31.7 236.97-31.7L236.97-31.7ZM236.32-4.65Q237.52-4.45 239.47-4.45L239.47-4.45Q242.77-4.45 245.72-5.83 248.67-7.2 250.47-9.68 252.27-12.15 252.27-15.4L252.27-15.4Q252.27-18.8 251.07-21.2 249.87-23.6 247.37-25.15L247.37-25.15Q245.52-26.3 242.82-26.83 240.12-27.35 236.32-27.35L236.32-27.35Q236.32-26.15 236.47-24.35L236.47-24.35Q236.47-23.75 236.57-22.25L236.57-22.25Q236.87-16.45 236.87-12.9L236.87-12.9Q236.87-7.75 236.32-4.65L236.32-4.65ZM284.72-2.4Q284.72-1.3 283.55-0.55 282.37 0.2 281.37 0.2L281.37 0.2Q279.47 0.2 278.35-0.28 277.22-0.75 276.27-2.05L276.27-2.05Q274.97-0.9 272.72-0.33 270.47 0.25 268.57 0.25L268.57 0.25Q265.47 0.25 263.47-1.43 261.47-3.1 261.47-6.35L261.47-6.35Q261.47-7.75 262.22-8.93 262.97-10.1 264.27-11L264.27-11Q265.72-11.95 267.57-12.48 269.42-13 271.42-13L271.42-13Q272.47-13 273.92-12.6 275.37-12.2 276.17-11.75L276.17-11.75 276.17-12.55Q276.17-15.25 274.87-16.28 273.57-17.3 270.67-17.3L270.67-17.3Q269.82-17.3 269-16.95 268.17-16.6 267.12-16L267.12-16Q265.72-15.25 264.47-15.25L264.47-15.25Q264.02-15.25 263.62-15.88 263.22-16.5 263.22-17L263.22-17Q263.22-18.45 264.6-19.5 265.97-20.55 267.87-21.08 269.77-21.6 271.27-21.6L271.27-21.6Q272.77-21.6 274.72-21.03 276.67-20.45 277.92-19.45L277.92-19.45Q279.42-18.15 280.25-16.43 281.07-14.7 281.07-12.65L281.07-12.65Q281.07-12 280.97-10.7L280.97-10.7Q280.87-9.3 280.87-8.3L280.87-8.3Q280.87-7.85 280.77-6.95L280.77-6.95Q280.67-5.85 280.67-5.2L280.67-5.2Q280.67-4.6 281.12-4.17 281.57-3.75 282.17-3.75L282.17-3.75 283.57-3.8Q284.12-3.8 284.42-3.4 284.72-3 284.72-2.4L284.72-2.4ZM268.62-3.7Q270.77-3.7 272.22-4.15 273.67-4.6 275.72-5.8L275.72-5.8Q275.92-6.65 275.97-8.05L275.97-8.05Q273.22-9.35 271.42-9.35L271.42-9.35Q269.37-9.35 267.77-8.6 266.17-7.85 266.17-5.95L266.17-5.95Q266.17-5 266.97-4.35 267.77-3.7 268.62-3.7L268.62-3.7ZM293.47 10.2Q291.57 10.2 290.29 9.58 289.02 8.95 288.39 8.08 287.77 7.2 287.77 6.55L287.77 6.55Q287.77 5.7 288.37 5.23 288.97 4.75 289.82 4.75L289.82 4.75Q290.32 4.75 290.77 5.05 291.22 5.35 291.27 5.4L291.27 5.4Q291.62 5.65 291.97 5.83 292.32 6 292.72 6L292.72 6Q293.82 6 294.52 4.55 295.22 3.1 295.92-0.15L295.92-0.15Q293.67-3.45 292.17-6.75L292.17-6.75 291.02-9.4Q290.77-10 289.64-12.53 288.52-15.05 287.42-17L287.42-17Q286.72-18.4 286.72-18.9L286.72-18.9Q286.72-20.15 287.59-20.75 288.47-21.35 289.62-21.35L289.62-21.35Q290.42-21.35 290.84-21.03 291.27-20.7 291.82-19.85L291.82-19.85Q293.27-17.45 294.97-12.65L294.97-12.65Q295.97-9.9 296.57-8.47 297.17-7.05 298.02-5.6L298.02-5.6Q298.87-7.55 300.17-12.25L300.17-12.25Q300.97-14.95 301.49-16.57 302.02-18.2 302.67-19.55L302.67-19.55Q303.12-20.45 303.79-21 304.47-21.55 305.32-21.55L305.32-21.55Q306.17-21.55 307.14-20.93 308.12-20.3 308.12-19.45L308.12-19.45Q308.12-18.95 307.77-18.25L307.77-18.25Q305.82-13.75 304.34-9.78 302.87-5.8 301.52-1.05L301.52-1.05Q300.72 1.6 299.84 4 298.97 6.4 298.62 6.95L298.62 6.95Q297.62 8.35 296.37 9.28 295.12 10.2 293.47 10.2L293.47 10.2Z" opacity="1" transform="matrix(1,0,0,1,0,0)" fill="#ffffff" class="undefined-text-0" data-fill-palette-color="quaternary" id="text-0"></path></svg></g></svg></g></svg></g></svg></g><g transform="matrix(1,0,0,1,43.94833761229614,0)"><svg viewBox="0 0 125.26176600256483 63.694699471230784" height="63.694699471230784" width="125.26176600256483"><g><svg xmlns="http://www.w3.org/2000/svg" viewBox="4.751090049743652 25.71099853515625 80.96490478515625 41.170066833496094" xml:space="preserve" x="0" y="0" height="63.694699471230784" width="125.26176600256483" class="icon-icon-0" data-fill-palette-color="quaternary" id="icon-0"><g fill-rule="evenodd" clip-rule="evenodd" fill="#ffffff" data-fill-palette-color="quaternary"><path d="M45.235 31.481a6.74 6.74 0 0 0-6.731 6.732 6.74 6.74 0 0 0 6.731 6.731 6.74 6.74 0 0 0 6.732-6.731 6.74 6.74 0 0 0-6.732-6.732z m0 11.54a4.808 4.808 0 1 1 0-9.617 4.808 4.808 0 1 1 0 9.617zM45.235 25.711a0.96 0.96 0 0 0-0.961 0.962v1.923a0.96 0.96 0 1 0 1.923 0v-1.923a0.961 0.961 0 0 0-0.962-0.962zM45.235 46.868a0.96 0.96 0 0 0-0.961 0.961v1.924a0.96 0.96 0 1 0 1.923 0V47.83a0.961 0.961 0 0 0-0.962-0.962zM54.075 29.372a0.963 0.963 0 0 0-1.36 0l-1.36 1.36a0.963 0.963 0 0 0 1.36 1.36l1.36-1.36a0.963 0.963 0 0 0 0-1.36zM39.116 44.334a0.96 0.96 0 0 0-1.36 0l-1.36 1.36a0.963 0.963 0 0 0 1.36 1.36l1.36-1.36a0.963 0.963 0 0 0 0-1.36zM32.733 38.213c0 0.531 0.43 0.961 0.961 0.961h1.924a0.96 0.96 0 1 0 0-1.923h-1.924a0.962 0.962 0 0 0-0.961 0.962zM53.891 38.213c0 0.531 0.43 0.961 0.961 0.961h1.923a0.96 0.96 0 1 0 0-1.923h-1.923a0.962 0.962 0 0 0-0.961 0.962zM36.395 29.373a0.96 0.96 0 0 0 0 1.36l1.359 1.359a0.96 0.96 0 1 0 1.36-1.359l-1.36-1.36a0.96 0.96 0 0 0-1.359 0zM51.357 44.333a0.96 0.96 0 0 0 0 1.36l1.36 1.36a0.963 0.963 0 0 0 1.36-1.36l-1.36-1.36a0.96 0.96 0 0 0-1.36 0z" fill="#ffffff" data-fill-palette-color="quaternary"></path></g><path d="M80.581 60.456c-3.593-8.797-10.302-16.006-19.02-20.252a0.962 0.962 0 0 1 0.842-1.73c9.208 4.486 16.281 12.122 20.032 21.438M21.772 41.276A40.685 40.685 0 0 0 4.78 65.685a0.962 0.962 0 1 0 1.871 0.448 38.769 38.769 0 0 1 16.113-23.205m-0.992-1.652l2.698 4.586 3.773-7.337-8.246-0.269 1.775 3.02m55.484 20.17l6.211 5.429 2.249-7.938-8.46 2.509z" fill="#ffffff" data-fill-palette-color="quaternary"></path></svg></g></svg></g><g></g></svg></g></svg></g></svg></g></svg></g></svg><rect width="342.85155851775386" height="342.85155851775386" fill="none" stroke="none" visibility="hidden"></rect></g><defs></defs></svg>